<?xml version="1.0" encoding="UTF-8"?>
<!DOCTYPE svg PUBLIC "-//W3C//DTD SVG 1.1//EN" "http://www.w3.org/Graphics/SVG/1.1/DTD/svg11.dtd">
<svg xmlns="http://www.w3.org/2000/svg" version="1.1" width="284px" height="162px" style="shape-rendering:geometricPrecision; text-rendering:geometricPrecision; image-rendering:optimizeQuality; fill-rule:evenodd; clip-rule:evenodd" xmlns:xlink="http://www.w3.org/1999/xlink">
<g><path style="opacity:0.984" fill="#009be0" d="M 167.5,-0.5 C 205.833,-0.5 244.167,-0.5 282.5,-0.5C 277.094,8.6405 271.428,17.6405 265.5,26.5C 252.511,27.1662 239.511,27.4996 226.5,27.5C 212.829,27.3334 199.163,27.5001 185.5,28C 168.577,28.3773 155.077,35.2107 145,48.5C 137.148,64.3791 129.481,80.3791 122,96.5C 117.594,103.576 112.428,110.076 106.5,116C 97.8142,116.832 89.1475,116.665 80.5,115.5C 85.4987,108.84 89.9987,101.84 94,94.5C 101.39,78.3308 108.39,61.9975 115,45.5C 121.581,30.2598 131.747,18.0931 145.5,9C 152.658,5.12484 159.991,1.95817 167.5,-0.5 Z"/></g>
<g><path style="opacity:1" fill="#6dbeea" d="M 265.5,26.5 C 255.097,47.0759 241.764,65.5759 225.5,82C 213.443,90.681 200.11,93.681 185.5,91C 193.618,86.5492 200.118,80.3825 205,72.5C 211.665,57.1734 218.832,42.1734 226.5,27.5C 239.511,27.4996 252.511,27.1662 265.5,26.5 Z"/></g>
<g><path style="opacity:0.993" fill="#66b82d" d="M 114.5,161.5 C 76.5,161.5 38.5,161.5 0.5,161.5C 6.18009,152.797 11.8468,144.13 17.5,135.5C 19.4144,134.815 21.4144,134.315 23.5,134C 34.495,133.5 45.495,133.333 56.5,133.5C 71.8694,133.859 87.2027,133.359 102.5,132C 118.213,130.57 130.38,123.403 139,110.5C 145.713,97.0376 152.046,83.371 158,69.5C 162.669,60.4981 168.503,52.3314 175.5,45C 184.518,44.168 193.518,44.3347 202.5,45.5C 198.508,50.1502 195.008,55.1502 192,60.5C 184.028,76.0861 177.028,92.0861 171,108.5C 164.578,126.229 153.745,140.395 138.5,151C 130.751,155.382 122.751,158.882 114.5,161.5 Z"/></g>
<g><path style="opacity:0.996" fill="#a5d166" d="M 56.5,133.5 C 45.495,133.333 34.495,133.5 23.5,134C 21.4144,134.315 19.4144,134.815 17.5,135.5C 27.2941,116.202 39.2941,98.3683 53.5,82C 66.2031,70.8241 80.8698,66.8241 97.5,70C 89.3823,74.4508 82.8823,80.6175 78,88.5C 71.489,103.895 64.3223,118.895 56.5,133.5 Z"/></g>
</svg>
